<svg width="1000" height="1000" xmlns="http://www.w3.org/2000/svg" xmlns:xlink="http://www.w3.org/1999/xlink">
<rect x="270" y="300" width="300" height ="550" fill ="rgb(255,182,193)" stroke="rgb(0,0,0)" stroke-width ="2" />
<rect x="300" y="570" width="240" height ="100" fill ="rgb(222,184,135)" stroke="rgb(0,0,0)" stroke-width ="2" />
<circle cx="350" cy="400" r="50" fill ="rgb(255,255,255)" stroke="rgb(0,0,0)" stroke-width ="2" />
<circle cx="350" cy="400" r="10" fill ="rgb(0,0,0)" stroke="rgb(0,0,0)" stroke-width ="2" />
<circle cx="480" cy="400" r="50" fill ="rgb(255,255,255)" stroke="rgb(0,0,0)" stroke-width ="2" />
<circle cx="480" cy="400" r="10" fill ="rgb(0,0,0)" stroke="rgb(0,0,0)" stroke-width ="2" />
<polygon fill ="rgb(222,184,135)" stroke="rgb(0,0,0)" points=" 415,550  380,500  450,500  " stroke-width ="2" />
  <line x1="415" y1="670" x2="415" y2="740" style="stroke:rgb(0,0,0);stroke-width:2" />
  <line x1="415" y1="740" x2="345" y2="740" style="stroke:rgb(0,0,0);stroke-width:2" />
  <line x1="345" y1="740" x2="485" y2="740" style="stroke:rgb(0,0,0);stroke-width:2" />
<polygon fill ="none" stroke="rgb(0,0,0)" points=" 485,740  530,700  " stroke-width ="2" />
<polygon fill ="none" stroke="rgb(0,0,0)" points=" 345,740  300,700  " stroke-width ="2" />
<rect x="415" y="740" width="50" height ="70" fill ="rgb(255,255,255)" stroke="rgb(0,0,0)" stroke-width ="2" />
<rect x="365" y="740" width="50" height ="70" fill ="rgb(255,255,255)" stroke="rgb(0,0,0)" stroke-width ="2" />
<polygon fill ="rgb(255,182,193)" stroke="rgb(0,0,0)" points=" 270,100  150,100  270,500  " stroke-width ="2" />
<polygon fill ="rgb(255,182,193)" stroke="rgb(0,0,0)" points=" 570,100  690,100  570,500  " stroke-width ="2" />
<rect x="500" y="260" width="40" height ="40" fill ="rgb(255,215,0)" stroke="rgb(0,0,0)" stroke-width ="2" />
<polygon fill ="rgb(128,8,165)" stroke="rgb(0,0,0)" points=" 500,260  500,300  400,350  400,210  " stroke-width ="2" />
<polygon fill ="rgb(128,8,165)" stroke="rgb(0,0,0)" points=" 540,260  540,300  640,350  640,210  " stroke-width ="2" />
<polygon fill ="none" stroke="rgb(0,0,0)" points=" 300,600  180,570  " stroke-width ="2" />
<polygon fill ="none" stroke="rgb(0,0,0)" points=" 300,620  180,620  " stroke-width ="2" />
<polygon fill ="none" stroke="rgb(0,0,0)" points=" 300,640  180,670  " stroke-width ="2" />
<polygon fill ="none" stroke="rgb(0,0,0)" points=" 540,600  660,570  " stroke-width ="2" />
<polygon fill ="none" stroke="rgb(0,0,0)" points=" 540,620  660,620  " stroke-width ="2" />
<polygon fill ="none" stroke="rgb(0,0,0)" points=" 540,640  660,670  " stroke-width ="2" />
<circle cx="415" cy="610" r="5" fill ="rgb(0,0,0)" stroke="rgb(0,0,0)" stroke-width ="2" />
<circle cx="370" cy="600" r="5" fill ="rgb(0,0,0)" stroke="rgb(0,0,0)" stroke-width ="2" />
<circle cx="460" cy="600" r="5" fill ="rgb(0,0,0)" stroke="rgb(0,0,0)" stroke-width ="2" />
<circle cx="390" cy="640" r="5" fill ="rgb(0,0,0)" stroke="rgb(0,0,0)" stroke-width ="2" />
<circle cx="440" cy="640" r="5" fill ="rgb(0,0,0)" stroke="rgb(0,0,0)" stroke-width ="2" />
  <line x1="415" y1="550" x2="415" y2="570" style="stroke:rgb(0,0,0);stroke-width:2" />
<polygon fill ="rgb(255,165,0)" stroke="rgb(0,0,0)" points=" 740,690  830,710  730,920  " stroke-width ="2" />
<polygon fill ="rgb(0,255,0)" stroke="rgb(0,0,0)" points=" 770,700  760,650  780,680  800,650  800,680  840,660  800,710  " stroke-width ="2" />
<polygon fill ="none" stroke="rgb(0,0,0)" points=" 740,730  800,740  " stroke-width ="2" />
<polygon fill ="none" stroke="rgb(0,0,0)" points=" 760,760  800,770  " stroke-width ="2" />
<polygon fill ="none" stroke="rgb(0,0,0)" points=" 735,790  770,800  " stroke-width ="2" />
<polygon fill ="none" stroke="rgb(0,0,0)" points=" 750,830  770,838  " stroke-width ="2" />
</svg>

