<svg width="1000" height="1000" xmlns="http://www.w3.org/2000/svg" xmlns:xlink="http://www.w3.org/1999/xlink">
  <line x1="10" y1="390" x2="10" y2="340" style="stroke:rgb(0,255,0);stroke-width:2" />
  <line x1="10" y1="340" x2="60" y2="340" style="stroke:rgb(0,255,0);stroke-width:2" />
  <line x1="60" y1="340" x2="60" y2="290" style="stroke:rgb(0,255,0);stroke-width:2" />
  <line x1="60" y1="290" x2="110" y2="290" style="stroke:rgb(0,255,0);stroke-width:2" />
  <line x1="110" y1="290" x2="110" y2="240" style="stroke:rgb(0,255,0);stroke-width:2" />
  <line x1="110" y1="240" x2="160" y2="240" style="stroke:rgb(0,255,0);stroke-width:2" />
  <line x1="160" y1="240" x2="160" y2="190" style="stroke:rgb(0,255,0);stroke-width:2" />
  <line x1="160" y1="190" x2="210" y2="190" style="stroke:rgb(0,255,0);stroke-width:2" />
  <line x1="210" y1="190" x2="210" y2="140" style="stroke:rgb(0,255,0);stroke-width:2" />
  <line x1="210" y1="140" x2="260" y2="140" style="stroke:rgb(0,255,0);stroke-width:2" />
  <line x1="260" y1="140" x2="260" y2="90" style="stroke:rgb(0,255,0);stroke-width:2" />
  <line x1="260" y1="90" x2="310" y2="90" style="stroke:rgb(0,255,0);stroke-width:2" />
  <line x1="310" y1="90" x2="310" y2="40" style="stroke:rgb(0,255,0);stroke-width:2" />
  <line x1="310" y1="40" x2="360" y2="40" style="stroke:rgb(0,255,0);stroke-width:2" />
  <line x1="10" y1="340" x2="10" y2="290" style="stroke:rgb(0,0,255);stroke-width:2" />
  <line x1="10" y1="290" x2="60" y2="290" style="stroke:rgb(0,0,255);stroke-width:2" />
  <line x1="60" y1="290" x2="60" y2="240" style="stroke:rgb(0,0,255);stroke-width:2" />
  <line x1="60" y1="240" x2="110" y2="240" style="stroke:rgb(0,0,255);stroke-width:2" />
  <line x1="110" y1="240" x2="110" y2="190" style="stroke:rgb(0,0,255);stroke-width:2" />
  <line x1="110" y1="190" x2="160" y2="190" style="stroke:rgb(0,0,255);stroke-width:2" />
  <line x1="160" y1="190" x2="160" y2="140" style="stroke:rgb(0,0,255);stroke-width:2" />
  <line x1="160" y1="140" x2="210" y2="140" style="stroke:rgb(0,0,255);stroke-width:2" />
  <line x1="210" y1="140" x2="210" y2="90" style="stroke:rgb(0,0,255);stroke-width:2" />
  <line x1="210" y1="90" x2="260" y2="90" style="stroke:rgb(0,0,255);stroke-width:2" />
  <line x1="260" y1="90" x2="260" y2="40" style="stroke:rgb(0,0,255);stroke-width:2" />
  <line x1="260" y1="40" x2="310" y2="40" style="stroke:rgb(0,0,255);stroke-width:2" />
</svg>

